<?xml version="1.0" encoding="utf-8"?>
<!-- Generator: Adobe Illustrator 26.4.1, SVG Export Plug-In . SVG Version: 6.00 Build 0)  -->
<svg version="1.1" id="Layer_1" xmlns="http://www.w3.org/2000/svg" xmlns:xlink="http://www.w3.org/1999/xlink" x="0px" y="0px"
	 viewBox="0 0 1872.8 263.7" style="enable-background:new 0 0 1872.8 263.7;" xml:space="preserve">
<style type="text/css">
	.st0{enable-background:new    ;}
	.st1{fill:#FFFFFF;stroke:#FFFFFF;stroke-miterlimit:10;}
	.st2{fill:#FFFFFF;}
</style>
<g class="st0">
	<path class="st1" d="M486.4,189.1h-25.7v-34.8h-90.5v34.8h-25.7v-71c0-10.4,1.8-19.9,5.3-28.6c3.6-8.7,8.5-16.2,14.8-22.5
		c6.3-6.3,13.8-11.1,22.5-14.6c8.6-3.5,18.1-5.2,28.3-5.2h58c1.8,0,3.5,0.3,5,1c1.6,0.7,3,1.6,4.2,2.8c1.2,1.2,2.1,2.6,2.8,4.2
		c0.7,1.6,1,3.3,1,5V189.1z M370.2,128.5h90.5V72.9h-45.2c-0.8,0-2.5,0.1-5,0.3c-2.5,0.2-5.5,0.8-8.8,1.7c-3.3,0.9-6.8,2.3-10.5,4.3
		c-3.7,1.9-7.1,4.6-10.2,7.9c-3.1,3.4-5.7,7.6-7.7,12.6c-2,5-3,11.2-3,18.4V128.5z"/>
	<path class="st1" d="M629.9,176.1c0,1.8-0.3,3.6-1,5.1c-0.7,1.6-1.6,3-2.7,4.1c-1.2,1.2-2.5,2.1-4.1,2.7c-1.6,0.7-3.2,1-5,1H559
		c-3.2,0-6.5-0.4-10.1-1.1c-3.6-0.7-7.1-1.9-10.6-3.5c-3.5-1.6-6.9-3.7-10.1-6.1c-3.3-2.5-6.1-5.5-8.6-9c-2.4-3.5-4.4-7.6-5.9-12.2
		c-1.5-4.6-2.2-9.8-2.2-15.6V82.1h25.7v59.4c0,3.4,0.6,6.4,1.7,9.1c1.2,2.7,2.7,5,4.7,6.9c2,1.9,4.3,3.4,7,4.4
		c2.7,1,5.6,1.5,8.7,1.5h45V82.1h25.7V176.1z"/>
	<path class="st1" d="M747.7,107.9h-57.9c-3.5,0-6.1,0.9-7.9,2.6c-1.8,1.7-2.7,4.3-2.7,7.7v71h-25.7v-71c0-4.4,0.6-8.4,1.7-11.9
		c1.1-3.5,2.6-6.6,4.5-9.3s4-4.9,6.5-6.8c2.4-1.9,5-3.4,7.7-4.6c2.7-1.2,5.4-2.1,8.1-2.6c2.7-0.6,5.3-0.8,7.7-0.8h58.1V107.9z"/>
	<path class="st1" d="M879.3,117.5c0,3.6-0.6,7.4-1.9,11.5c-1.3,4.1-3.3,8-6.1,11.5c-2.8,3.5-6.5,6.5-11,8.9
		c-4.5,2.4-10,3.6-16.5,3.6h-46.4v-24.4h46.4c3.5,0,6.2-1.1,8.1-3.2c1.9-2.1,2.9-4.8,2.9-8c0-3.4-1.1-6-3.2-7.9
		c-2.1-1.9-4.7-2.9-7.8-2.9h-46.4c-3.5,0-6.2,1.1-8.1,3.2c-1.9,2.1-2.9,4.8-2.9,8v35.9c0,3.4,1.1,6.1,3.2,8c2.1,1.9,4.8,2.9,8,2.9
		h46.2v24.5h-46.4c-3.6,0-7.4-0.6-11.5-1.9c-4.1-1.3-8-3.3-11.5-6.1c-3.5-2.8-6.5-6.5-8.9-11c-2.4-4.5-3.6-10-3.6-16.5v-36.1
		c0-3.6,0.6-7.4,1.9-11.5c1.3-4.1,3.3-8,6.1-11.5c2.8-3.5,6.5-6.5,11-8.9c4.5-2.4,10-3.6,16.5-3.6h46.4c3.6,0,7.4,0.6,11.5,1.9
		c4.1,1.3,8,3.3,11.5,6.1c3.5,2.8,6.5,6.5,8.9,11C878.1,105.6,879.3,111.1,879.3,117.5z"/>
	<path class="st1" d="M1013,153c0,4.4-0.6,8.4-1.7,11.9c-1.1,3.5-2.6,6.6-4.5,9.3c-1.8,2.7-4,4.9-6.4,6.8c-2.4,1.9-5,3.4-7.7,4.6
		c-2.7,1.2-5.4,2.1-8.1,2.6c-2.7,0.6-5.3,0.8-7.8,0.8h-46.4c-3.6,0-7.5-0.6-11.7-1.9c-4.2-1.3-8.1-3.3-11.7-6.2
		c-3.6-2.9-6.6-6.6-9-11.2c-2.4-4.6-3.6-10.2-3.6-16.9v-34.8c0-6.6,1.2-12.2,3.6-16.8c2.4-4.6,5.4-8.3,9-11.2
		c3.6-2.9,7.5-4.9,11.7-6.2c4.2-1.3,8.1-1.9,11.7-1.9h46.4c6.6,0,12.2,1.2,16.8,3.6c4.6,2.4,8.3,5.4,11.2,9
		c2.8,3.6,4.9,7.5,6.2,11.7c1.3,4.2,1.9,8.1,1.9,11.8V153z M987.3,118.3c0-3.6-0.9-6.2-2.7-7.9c-1.8-1.7-4.4-2.6-7.7-2.6h-46.2
		c-3.4,0-6,0.9-7.8,2.6c-1.8,1.7-2.7,4.3-2.7,7.7V153c0,3.4,0.9,5.9,2.7,7.7s4.4,2.7,7.8,2.7h46.2c3.5,0,6.1-0.9,7.8-2.7
		c1.7-1.8,2.6-4.4,2.6-7.7V118.3z"/>
	<path class="st1" d="M1179.4,157.9c0,3.2-0.5,6.6-1.6,10.2c-1.1,3.6-2.9,7-5.3,10.1c-2.5,3.1-5.7,5.7-9.6,7.8
		c-4,2.1-8.8,3.1-14.5,3.1h-97.7c-1.8,0-3.6-0.3-5.1-1c-1.6-0.7-3-1.6-4.1-2.7c-1.2-1.2-2.1-2.5-2.7-4.1c-0.7-1.6-1-3.3-1-5.1v-116
		c0-1.8,0.3-3.5,1-5c0.7-1.6,1.6-3,2.7-4.2c1.2-1.2,2.5-2.1,4.1-2.8c1.6-0.7,3.3-1,5.1-1h86.1c3.2,0,6.6,0.6,10.2,1.7
		c3.6,1.1,7,2.9,10.1,5.4c3.1,2.5,5.7,5.7,7.8,9.6c2.1,4,3.1,8.8,3.1,14.5v4.8c0,4.6-0.8,9.5-2.3,14.7s-4,10.2-7.3,14.9
		c2.9,1.8,5.6,3.9,8.2,6.4c2.5,2.5,4.8,5.4,6.7,8.7c1.9,3.3,3.4,7,4.6,11.2c1.1,4.2,1.7,8.7,1.7,13.8V157.9z M1153.6,153
		c0-3.4-0.5-6.4-1.6-9.1c-1.1-2.7-2.5-5-4.5-6.9c-1.9-1.9-4.2-3.4-6.9-4.4c-2.7-1-5.7-1.5-9.1-1.5h-58v-25.9h46.4
		c3.4,0,6.4-0.5,9.1-1.5c2.7-1,5-2.5,6.9-4.4c1.9-1.9,3.4-4.2,4.4-6.9c1-2.7,1.5-5.7,1.5-9.1v-4.8c0-3.7-1.8-5.5-5.3-5.5h-73.3v90.5
		h84.9c0.5,0,1,0,1.7-0.1c0.7-0.1,1.3-0.3,1.8-0.6c0.5-0.3,1-0.9,1.4-1.7c0.4-0.8,0.6-1.9,0.6-3.3V153z"/>
	<path class="st1" d="M1292.5,107.9h-57.9c-3.5,0-6.1,0.9-7.9,2.6c-1.8,1.7-2.7,4.3-2.7,7.7v71h-25.7v-71c0-4.4,0.6-8.4,1.7-11.9
		c1.1-3.5,2.6-6.6,4.5-9.3s4-4.9,6.5-6.8c2.4-1.9,5-3.4,7.7-4.6c2.7-1.2,5.4-2.1,8.1-2.6c2.7-0.6,5.3-0.8,7.7-0.8h58.1V107.9z"/>
	<path class="st1" d="M1425.4,153c0,4.4-0.6,8.4-1.7,11.9c-1.1,3.5-2.6,6.6-4.5,9.3c-1.8,2.7-4,4.9-6.4,6.8c-2.4,1.9-5,3.4-7.7,4.6
		c-2.7,1.2-5.4,2.1-8.1,2.6c-2.7,0.6-5.3,0.8-7.8,0.8h-46.4c-3.6,0-7.5-0.6-11.7-1.9c-4.2-1.3-8.1-3.3-11.7-6.2
		c-3.6-2.9-6.6-6.6-9-11.2c-2.4-4.6-3.6-10.2-3.6-16.9v-34.8c0-6.6,1.2-12.2,3.6-16.8c2.4-4.6,5.4-8.3,9-11.2
		c3.6-2.9,7.5-4.9,11.7-6.2c4.2-1.3,8.1-1.9,11.7-1.9h46.4c6.6,0,12.2,1.2,16.8,3.6c4.6,2.4,8.3,5.4,11.2,9
		c2.8,3.6,4.9,7.5,6.2,11.7c1.3,4.2,1.9,8.1,1.9,11.8V153z M1399.7,118.3c0-3.6-0.9-6.2-2.7-7.9c-1.8-1.7-4.4-2.6-7.7-2.6H1343
		c-3.4,0-6,0.9-7.8,2.6c-1.8,1.7-2.7,4.3-2.7,7.7V153c0,3.4,0.9,5.9,2.7,7.7s4.4,2.7,7.8,2.7h46.2c3.5,0,6.1-0.9,7.8-2.7
		c1.7-1.8,2.6-4.4,2.6-7.7V118.3z"/>
	<path class="st1" d="M1623.4,82.1c-4.1,9.2-8.5,18.2-13.3,27.1c-4.8,8.9-9.7,17.3-14.9,25.2c-5.2,7.9-10.5,15.2-15.9,21.9
		c-5.4,6.7-10.8,12.5-16.1,17.3c-5.3,4.8-10.5,8.6-15.5,11.4c-5,2.7-9.8,4.1-14.3,4.1c-1.8,0-3.6-0.3-5.1-1c-1.6-0.7-3-1.6-4.2-2.7
		c-1.2-1.2-2.1-2.5-2.8-4.1c-0.7-1.6-1-3.3-1-5.1v-48l-51.1,57.1c-1.3,1.3-2.8,2.3-4.3,2.9c-1.6,0.6-3.2,0.9-4.8,0.9
		c-1.8,0-3.4-0.3-5-1c-1.6-0.7-2.9-1.6-4.1-2.7c-1.2-1.2-2.1-2.5-2.8-4.1c-0.7-1.6-1-3.3-1-5.1v-94h25.7v61l51.3-57.3
		c1.8-1.8,4-3,6.6-3.5c2.5-0.5,5-0.2,7.5,0.8c2.4,1,4.4,2.6,5.8,4.7c1.4,2.1,2.1,4.5,2.1,7.1V156c5.5-5.3,10.6-11,15-16.9
		c4.5-5.9,8.7-12.1,12.5-18.4c3.9-6.3,7.5-12.7,10.9-19.2c3.4-6.5,6.7-13,9.9-19.4H1623.4z"/>
	<path class="st1" d="M1735.7,153c0,4.4-0.6,8.4-1.7,11.9c-1.1,3.5-2.6,6.6-4.5,9.3c-1.8,2.7-4,4.9-6.4,6.8c-2.4,1.9-5,3.4-7.7,4.6
		s-5.4,2.1-8.1,2.6c-2.7,0.6-5.3,0.8-7.8,0.8h-69.7v-25.7h69.5c3.5,0,6.1-0.9,7.9-2.7c1.8-1.8,2.7-4.4,2.7-7.7
		c-0.3-6.9-3.8-10.3-10.4-10.3h-39.9c-5.7,0-10.5-1-14.4-3c-4-2-7.2-4.5-9.6-7.4c-2.5-3-4.3-6.2-5.3-9.6c-1.1-3.4-1.6-6.6-1.6-9.6
		c0-5.7,1-10.6,3.1-14.5c2-3.9,4.6-7.1,7.7-9.5c3.1-2.4,6.5-4.2,10.1-5.3c3.6-1.1,7-1.6,10.2-1.6h63.2v25.7h-63
		c-1.3,0-2.4,0.1-3.1,0.4c-0.8,0.3-1.3,0.7-1.7,1.2c-0.4,0.5-0.6,1-0.6,1.6c-0.1,0.6-0.1,1.1-0.1,1.6c0.1,1.1,0.3,1.9,0.6,2.5
		c0.3,0.6,0.7,1,1.2,1.3c0.5,0.3,1.1,0.4,1.7,0.4c0.6,0,1.2,0,1.8,0h39.9c6.6,0,12.2,1.2,16.8,3.6c4.6,2.4,8.3,5.4,11.2,9
		c2.8,3.6,4.9,7.5,6.2,11.7C1735.1,145.4,1735.7,149.4,1735.7,153z"/>
	<path class="st1" d="M1868.8,117.5c0,3.6-0.6,7.4-1.9,11.5c-1.3,4.1-3.3,8-6.1,11.5c-2.8,3.5-6.5,6.5-11,8.9
		c-4.5,2.4-10,3.6-16.5,3.6H1787v-24.4h46.4c3.5,0,6.2-1.1,8.1-3.2c1.9-2.1,2.9-4.8,2.9-8c0-3.4-1.1-6-3.2-7.9
		c-2.1-1.9-4.7-2.9-7.8-2.9H1787c-3.5,0-6.2,1.1-8.1,3.2c-1.9,2.1-2.9,4.8-2.9,8v35.9c0,3.4,1.1,6.1,3.2,8c2.1,1.9,4.8,2.9,8,2.9
		h46.2v24.5H1787c-3.6,0-7.4-0.6-11.5-1.9c-4.1-1.3-8-3.3-11.5-6.1c-3.5-2.8-6.5-6.5-8.9-11c-2.4-4.5-3.6-10-3.6-16.5v-36.1
		c0-3.6,0.6-7.4,1.9-11.5c1.3-4.1,3.3-8,6.1-11.5c2.8-3.5,6.5-6.5,11-8.9c4.5-2.4,10-3.6,16.5-3.6h46.4c3.6,0,7.4,0.6,11.5,1.9
		c4.1,1.3,8,3.3,11.5,6.1c3.5,2.8,6.5,6.5,8.9,11C1867.7,105.6,1868.8,111.1,1868.8,117.5z"/>
</g>
<g id="GquIyL.tif">
</g>
<g id="m8Ocz0.tif">
</g>
<polygon class="st2" points="123,250.9 4.8,197.8 31.3,128.9 103.8,162.8 "/>
<polygon class="st2" points="305.2,44.1 109.2,154.9 38.3,122 235.4,12.9 "/>
<polygon class="st2" points="328.5,140.8 132.9,249.5 114.4,161.4 309.5,49.7 "/>
</svg>
